<svg width="87" height="87" viewBox="0 0 87 87" fill="none" xmlns="http://www.w3.org/2000/svg">
<path d="M71.9899 63.6716C71.4307 63.2453 70.6322 63.3531 70.2061 63.9121C69.1146 65.3436 67.6765 66.4836 66.0473 67.2088C64.9322 67.7052 64.2122 68.8261 64.2126 70.0642C64.2126 75.7658 59.5739 80.4045 53.8723 80.4045C50.5355 80.4045 47.3855 78.7782 45.4461 76.0536C45.0003 75.4276 44.2729 75.0538 43.4999 75.0538C42.727 75.0538 41.9995 75.4276 41.5536 76.0538C39.6142 78.778 36.4644 80.4045 33.1276 80.4045C27.4259 80.4045 22.7873 75.7658 22.7873 70.0647C22.7878 68.8261 22.0678 67.7053 20.9527 67.209C16.1449 65.0685 13.6104 59.8101 14.9265 54.7056C15.2886 53.3011 14.5501 51.8392 13.2087 51.305C9.03379 49.6426 6.33638 45.6657 6.33638 41.1731C6.33638 35.1608 11.2277 30.2693 17.2433 30.2693H17.2441C17.7639 30.2693 18.2411 30.0078 18.5204 29.5698C18.8005 29.1303 18.8363 28.5853 18.6157 28.1115C17.7525 26.2605 17.328 24.2778 17.3536 22.2186C17.3812 19.9947 17.9682 17.7912 19.0515 15.8464C19.3934 15.2323 19.1728 14.4571 18.5589 14.1152C17.9448 13.7734 17.1698 13.9939 16.8277 14.6078C15.5396 16.9209 14.8413 19.5417 14.8087 22.1871C14.7845 24.1276 15.0977 26.0119 15.741 27.8069C9.02768 28.5546 3.79102 34.2636 3.79102 41.1731C3.79102 46.7142 7.11798 51.6195 12.2671 53.6699C12.421 53.7311 12.5047 53.9033 12.4616 54.0701C10.834 60.3828 13.9696 66.8862 19.9174 69.5343C20.1146 69.622 20.2419 69.8297 20.2417 70.0642C20.2417 77.1693 26.0221 82.9499 33.1274 82.9499C37.2135 82.9499 41.0747 80.9935 43.4997 77.7057C45.925 80.9935 49.786 82.9499 53.8721 82.9499C60.9773 82.9499 66.7578 77.1693 66.7578 70.0635C66.7576 69.8299 66.8849 69.6222 67.0822 69.5343C69.1004 68.6359 70.8804 67.2255 72.2298 65.4554C72.6562 64.8963 72.5488 64.0977 71.9899 63.6716Z" fill="#6285F4"/>
<path d="M74.7325 53.6697C79.8816 51.6193 83.2086 46.7142 83.2086 41.1729C83.2086 34.265 77.9734 28.5566 71.2584 27.807C71.9019 26.0117 72.2151 24.1275 72.1909 22.1869C72.1376 17.8922 70.3972 13.8669 67.2905 10.8524C64.1813 7.83491 60.1073 6.21572 55.8002 6.2909C50.9876 6.37591 46.5074 8.58444 43.4998 12.3523C40.4921 8.58461 36.012 6.37591 31.1993 6.2909C27.3446 6.22506 23.5684 7.56069 20.5893 10.0584C20.0507 10.5099 19.9801 11.3127 20.4317 11.8513C20.8831 12.3899 21.686 12.4604 22.2245 12.009C24.7335 9.90549 27.9079 8.77772 31.1543 8.83592C35.2214 8.9077 39.0066 10.7814 41.5396 13.9767C41.7332 14.2211 41.9674 14.4206 42.2271 14.5745V23.2946C42.2271 25.8687 40.133 27.963 37.5588 27.963C36.8557 27.963 36.2861 28.5328 36.2861 29.2357C36.2861 29.9385 36.8557 30.5084 37.5588 30.5084C40.0207 30.5084 42.1974 29.2679 43.4998 27.3799C44.802 29.2679 46.9788 30.5084 49.4409 30.5084C50.1439 30.5084 50.7136 29.9385 50.7136 29.2357C50.7136 28.5328 50.1439 27.963 49.4409 27.963C46.8667 27.963 44.7725 25.8688 44.7725 23.2946V14.5747C45.0321 14.4208 45.2663 14.2214 45.4599 13.9771C47.9931 10.7816 51.7782 8.90787 55.8454 8.83609C59.4634 8.7672 62.8981 10.1371 65.5181 12.6791C68.1349 15.2183 69.6009 18.6062 69.6458 22.2186C69.6713 24.2776 69.2467 26.2603 68.3835 28.1118C68.1631 28.5853 68.1989 29.1301 68.479 29.5696C68.7583 30.0078 69.2355 30.2691 69.7588 30.2691H69.7595C75.7718 30.2691 80.6632 35.1606 80.6632 41.1729C80.6632 45.6655 77.9658 49.6426 73.7909 51.3049C72.4495 51.8389 71.711 53.3009 72.0731 54.7055C72.4734 56.2581 72.5246 57.8386 72.2251 59.4032C72.0929 60.0935 72.5455 60.7604 73.2356 60.8926C73.3168 60.908 73.397 60.9155 73.4766 60.9155C74.0748 60.9155 74.6084 60.4912 74.725 59.8819C75.096 57.9452 75.0328 55.9897 74.5379 54.07C74.4948 53.9032 74.5786 53.7309 74.7325 53.6697Z" fill="#6285F4"/>
<path d="M50.7136 43.9463C50.7136 43.2434 50.144 42.6736 49.4409 42.6736C46.979 42.6736 44.8022 43.914 43.4999 45.802C42.1977 43.914 40.0209 42.6736 37.5588 42.6736C36.8558 42.6736 36.2861 43.2434 36.2861 43.9463C36.2861 44.6491 36.8558 45.219 37.5588 45.219C40.133 45.219 42.2272 47.3131 42.2272 49.8873V51.7383C42.2272 52.4412 42.7968 53.011 43.4999 53.011C44.2029 53.011 44.7726 52.4412 44.7726 51.7383V49.8873C44.7726 47.3133 46.8667 45.219 49.4409 45.219C50.1438 45.219 50.7136 44.6491 50.7136 43.9463Z" fill="#6285F4"/>
<path d="M43.5001 62.6798C42.7971 62.6798 42.2274 63.2496 42.2274 63.9525V65.3036C42.2274 66.993 40.8528 68.3675 39.1633 68.3675C38.4603 68.3675 37.8906 68.9373 37.8906 69.6402C37.8906 70.3431 38.4603 70.9129 39.1633 70.9129C40.9089 70.9129 42.4704 70.1113 43.5001 68.8571C44.5296 70.1113 46.0913 70.9129 47.8369 70.9129C48.5399 70.9129 49.1096 70.3431 49.1096 69.6402C49.1096 68.9373 48.5399 68.3675 47.8369 68.3675C46.1475 68.3675 44.7728 66.993 44.7728 65.3036V63.9525C44.7728 63.2496 44.2031 62.6798 43.5001 62.6798Z" fill="#6285F4"/>
<path d="M58.9282 41.6738C58.9282 42.3766 59.4979 42.9465 60.2009 42.9465C60.9039 42.9465 61.4736 42.3766 61.4736 41.6738V40.694C61.4736 38.4413 62.4374 36.289 64.1177 34.7887C64.6421 34.3205 64.6875 33.516 64.2195 32.9919C63.7513 32.4675 62.9468 32.4219 62.4225 32.8901C60.2019 34.8727 58.9282 37.7171 58.9282 40.6941V41.6738Z" fill="#6285F4"/>
<path d="M24.5774 32.8899C24.0529 32.4215 23.2484 32.4673 22.7804 32.9917C22.3122 33.516 22.3578 34.3205 22.8822 34.7885C24.5625 36.2888 25.5263 38.4412 25.5263 40.6938V41.6736C25.5263 42.3765 26.096 42.9463 26.799 42.9463C27.502 42.9463 28.0717 42.3765 28.0717 41.6736V40.6938C28.0717 37.7167 26.798 34.8724 24.5774 32.8899Z" fill="#6285F4"/>
<path d="M29.8854 51.7875L29.7221 51.8898C26.6838 53.7939 24.8696 57.0713 24.8696 60.6571V60.9379C24.8696 61.6408 25.4393 62.2106 26.1423 62.2106C26.8453 62.2106 27.415 61.6408 27.415 60.9379V60.6571C27.415 57.9534 28.7827 55.4824 31.0739 54.0464L31.2375 53.9439C31.8331 53.5704 32.0129 52.7849 31.6395 52.1895C31.2661 51.5942 30.4806 51.4144 29.8854 51.7875Z" fill="#6285F4"/>
<path d="M55.3607 52.1897C54.9872 52.7851 55.1671 53.5706 55.7627 53.9441L55.9267 54.0469C58.2177 55.4825 59.5854 57.9536 59.5854 60.6572V60.9381C59.5854 61.6409 60.155 62.2108 60.858 62.2108C61.5611 62.2108 62.1307 61.6409 62.1307 60.9381V60.6572C62.1307 57.0715 60.3167 53.7941 57.2786 51.8901L57.115 51.7877C56.5197 51.4142 55.7342 51.5939 55.3607 52.1897Z" fill="#6285F4"/>
<path d="M29.7381 17.7556C27.393 18.5752 25.8174 20.7949 25.8174 23.2792V23.9737C25.8174 24.6766 26.387 25.2464 27.0901 25.2464C27.7931 25.2464 28.3627 24.6766 28.3627 23.9737V23.2792C28.3627 21.8757 29.253 20.6215 30.5781 20.1584C31.2416 19.9264 31.5915 19.2007 31.3595 18.5372C31.1275 17.8737 30.4026 17.5236 29.7381 17.7556Z" fill="#6285F4"/>
<path d="M57.2618 17.7556C56.5973 17.5236 55.8722 17.8737 55.6404 18.5372C55.4086 19.2007 55.7584 19.9266 56.4219 20.1584C57.747 20.6215 58.6372 21.8757 58.6372 23.2792V23.9737C58.6372 24.6766 59.2068 25.2464 59.9099 25.2464C60.6129 25.2464 61.1825 24.6766 61.1825 23.9737V23.2792C61.1825 20.7949 59.607 18.5752 57.2618 17.7556Z" fill="#6285F4"/>
<path d="M77.0718 10.3546C77.4855 10.7299 78.0079 10.9246 78.5376 10.9246C78.8702 10.9246 79.2059 10.8479 79.5195 10.6911L85.7952 7.55246C86.8347 7.0327 87.2891 5.74865 86.8079 4.68961C85.7906 2.45172 84.0954 0.91296 81.7694 0.1166C80.67 -0.259605 79.435 0.315987 79.0177 1.40116L76.5003 7.9509C76.174 8.79986 76.3983 9.74335 77.0718 10.3546ZM81.2671 2.64364C82.6508 3.19276 83.6611 4.1096 84.3412 5.4337L79.2081 8.00079L81.2671 2.64364Z" fill="#6285F4"/>
<path d="M1.20535 7.55327L7.48103 10.6919C7.79479 10.8488 8.13027 10.9254 8.46287 10.9254C8.99264 10.9254 9.51478 10.7307 9.92866 10.3554C10.6022 9.74415 10.8265 8.80067 10.5002 7.9517L7.98281 1.40163C7.56571 0.31662 6.33172 -0.259651 5.23127 0.117233C2.90531 0.913593 1.20993 2.45235 0.192462 4.69075C-0.288612 5.74928 0.165821 7.0335 1.20535 7.55327ZM5.73355 2.64427L7.79259 8.00142L2.65943 5.43433C3.33955 4.1104 4.34972 3.19339 5.73355 2.64427Z" fill="#6285F4"/>
<path d="M85.7952 79.2056L79.5195 76.0669C78.706 75.66 77.7453 75.7922 77.0718 76.4034C76.3983 77.0147 76.174 77.9581 76.5003 78.8071L79.0179 85.357C79.3483 86.2165 80.1918 86.7568 81.075 86.7568C81.3065 86.7568 81.5408 86.7196 81.7694 86.6414C84.0954 85.8451 85.7906 84.3065 86.808 82.0681C87.2891 81.0094 86.8347 79.7253 85.7952 79.2056ZM81.2671 84.1144L79.2081 78.7572L84.3412 81.3243C83.661 82.6484 82.6508 83.5653 81.2671 84.1144Z" fill="#6285F4"/>
<path d="M9.9281 76.4034C9.25443 75.7921 8.29381 75.6601 7.48048 76.0669L1.20479 79.2055C0.165266 79.7252 -0.289166 81.0093 0.192078 82.0683C1.20938 84.3064 2.90459 85.845 5.23055 86.6413C5.45912 86.7196 5.69329 86.7567 5.92492 86.7567C6.80799 86.7567 7.6517 86.2164 7.98226 85.3568L10.4996 78.807C10.8259 77.9581 10.6016 77.0146 9.9281 76.4034ZM5.733 84.1143C4.34934 83.5652 3.339 82.6483 2.65888 81.3242L7.79203 78.7572L5.733 84.1143Z" fill="#6285F4"/>
<path d="M43.4997 5.73386C44.2028 5.73386 44.7724 5.16404 44.7724 4.46118V1.27268C44.7724 0.569823 44.2028 0 43.4997 0C42.7967 0 42.2271 0.569823 42.2271 1.27268V4.46118C42.2271 5.16404 42.7969 5.73386 43.4997 5.73386Z" fill="#6285F4"/>
<path d="M43.4997 81.1938C42.7967 81.1938 42.2271 81.7637 42.2271 82.4665V85.655C42.2271 86.3579 42.7967 86.9277 43.4997 86.9277C44.2028 86.9277 44.7724 86.3579 44.7724 85.655V82.4665C44.7724 81.7637 44.2028 81.1938 43.4997 81.1938Z" fill="#6285F4"/>
<path d="M1.37674 68.6949C1.62381 69.0519 2.02072 69.2433 2.42442 69.2433C2.6742 69.2433 2.92653 69.17 3.14747 69.0171L6.77207 66.5088C7.35004 66.1088 7.49445 65.316 7.09432 64.7379C6.69452 64.1599 5.90173 64.0156 5.32359 64.4156L1.69899 66.924C1.12102 67.3241 0.976612 68.1169 1.37674 68.6949Z" fill="#6285F4"/>
<path d="M6.04657 22.7381C6.45026 22.7381 6.84717 22.5465 7.09424 22.1896C7.4942 21.6117 7.34997 20.8189 6.772 20.4188L3.1474 17.9104C2.5696 17.5104 1.77663 17.6548 1.37667 18.2326C0.976708 18.8106 1.12095 19.6034 1.69891 20.0035L5.32351 22.5119C5.54445 22.6648 5.79695 22.7381 6.04657 22.7381Z" fill="#6285F4"/>
<path d="M85.3013 66.9242L81.6767 64.4158C81.0987 64.016 80.3059 64.1604 79.906 64.7381C79.506 65.316 79.6502 66.1088 80.2282 66.5089L83.8528 69.0173C84.0737 69.1702 84.3261 69.2435 84.5759 69.2435C84.9796 69.2435 85.3765 69.0519 85.6235 68.6951C86.0237 68.1169 85.8793 67.3241 85.3013 66.9242Z" fill="#6285F4"/>
<path d="M85.6236 18.2327C85.2237 17.6549 84.431 17.5105 83.8529 17.9105L80.2283 20.4189C79.6503 20.8188 79.5059 21.6116 79.906 22.1898C80.1531 22.5468 80.55 22.7382 80.9537 22.7382C81.2035 22.7382 81.4558 22.6649 81.6768 22.512L85.3014 20.0036C85.8793 19.6035 86.0237 18.8107 85.6236 18.2327Z" fill="#6285F4"/>
</svg>
