<svg width="90" height="93" viewBox="0 0 90 93" fill="none" xmlns="http://www.w3.org/2000/svg">
<path d="M88.5271 51.5496C87.6195 50.4789 86.3496 49.8256 84.9507 49.71C83.5524 49.5944 82.1919 50.0306 81.1211 50.938L80.417 51.5348C80.2476 50.6626 79.8583 49.8436 79.268 49.1471C77.3947 46.9369 74.0726 46.6626 71.862 48.5357L71.235 49.0671C71.0594 48.2395 70.6818 47.4429 70.0972 46.753C68.2238 44.5426 64.9012 44.2683 62.6912 46.1416L52.1831 55.0469C51.6435 54.8941 51.0752 54.8107 50.4873 54.8107H31.6073C27.3681 54.8107 23.2336 56.0084 19.6508 58.2742C16.068 60.5402 13.214 63.7622 11.397 67.5926L10.7541 68.9482L0.295547 82.1499C-0.173286 82.7418 -0.0735769 83.6016 0.518297 84.0704C0.769484 84.2695 1.06898 84.3661 1.36628 84.3661C1.76949 84.3661 2.16887 84.1884 2.43884 83.8479L12.9941 70.5239C13.0585 70.4427 13.1134 70.3543 13.1577 70.2608L13.8675 68.7645C17.1004 61.9489 24.0639 57.5449 31.6073 57.5449H50.4875C52.4177 57.5449 53.9881 59.1153 53.9881 61.0457C53.9881 61.9955 53.614 62.8845 52.935 63.5488C52.2755 64.1939 51.4104 64.5464 50.4913 64.5464C50.4647 64.5464 38.1956 64.5451 38.1956 64.5451C37.4405 64.5451 36.8284 65.1573 36.8284 65.9123C36.8284 66.6673 37.4405 67.2794 38.1956 67.2794H50.3666C52.0524 67.3102 53.6419 66.6824 54.847 65.5036C55.0192 65.3352 55.1791 65.1576 55.3291 64.9737H66.8808C68.1112 64.9737 69.3057 64.5357 70.2441 63.7402L82.8889 53.0239C83.4026 52.5886 84.0568 52.3788 84.7258 52.435C85.3968 52.4904 86.006 52.8037 86.4413 53.3174C86.8765 53.8309 87.0858 54.4833 87.0304 55.1543C86.9748 55.8253 86.6616 56.4344 86.148 56.8697L66.1868 73.7866C64.3239 75.3653 62.0577 76.3538 59.6332 76.6457L56.0302 77.0791C55.2804 77.1694 54.7458 77.85 54.836 78.5997C54.9195 79.2941 55.5094 79.8037 56.1917 79.8037C56.2462 79.8037 56.3014 79.8004 56.3566 79.7937L59.9597 79.3602C62.9174 79.0044 65.6821 77.7984 67.9544 75.8724L87.9156 58.9558C88.9865 58.0484 89.6398 56.7782 89.7552 55.3794C89.8707 53.9805 89.4345 52.6205 88.5271 51.5496ZM64.459 48.2279C65.5188 47.3296 67.113 47.4608 68.0115 48.5212C68.8396 49.4986 68.8073 50.9213 67.9446 51.8558L56.7137 61.374C56.7194 61.2651 56.7225 61.1558 56.7225 61.046C56.7225 59.2429 55.9523 57.6171 54.7247 56.4776L64.459 48.2279ZM59.9212 62.2396L73.6296 50.622C74.69 49.7235 76.2837 49.8551 77.182 50.9151C77.6173 51.4288 77.8265 52.0811 77.7711 52.7521C77.7155 53.4231 77.4024 54.0323 76.8887 54.4676L68.4759 61.6545C68.0308 62.0318 67.4641 62.2396 66.8804 62.2396H59.9212Z" fill="#6285F4"/>
<path d="M50.204 77.78L37.3435 79.327C36.9977 79.3686 36.6807 79.5406 36.4576 79.8079L27.3121 90.7565C26.828 91.336 26.9054 92.1982 27.4849 92.6822C27.7407 92.8958 28.0514 93.0001 28.3606 93.0001C28.7518 93.0001 29.1402 92.8331 29.4106 92.5094L38.2086 81.9767L50.5306 80.4945C51.2802 80.4043 51.815 79.7236 51.7248 78.9739C51.6344 78.2244 50.9519 77.6897 50.204 77.78Z" fill="#6285F4"/>
<path d="M22.779 41.5909H26.0508L28.1478 46.3015C28.573 47.257 29.4872 47.8505 30.533 47.8505C31.5789 47.8505 32.4927 47.257 32.918 46.3015L35.0149 41.5909H42.0177C42.7727 41.5909 43.3848 40.9788 43.3848 40.2238C43.3848 39.4688 42.7727 38.8566 42.0177 38.8566H34.127C33.5871 38.8566 33.0977 39.1745 32.878 39.6678L30.5328 44.936L28.1875 39.6678C27.9679 39.1745 27.4786 38.8566 26.9385 38.8566H22.7788C18.0907 38.8566 14.2766 35.0425 14.2766 30.3544V11.2365C14.2769 6.54835 18.091 2.73425 22.779 2.73425H53.4815C58.1697 2.73425 61.9838 6.54835 61.9838 11.2365V30.3544C61.9838 35.0425 58.1697 38.8566 53.4815 38.8566H47.844C47.0888 38.8566 46.4769 39.4688 46.4769 40.2238C46.4769 40.9788 47.0888 41.5909 47.844 41.5909H53.4815C59.6773 41.5909 64.718 36.5502 64.718 30.3544V11.2365C64.7178 5.04069 59.6773 0 53.4815 0H22.779C16.5832 0 11.5425 5.04069 11.5425 11.2365V30.3544C11.5427 36.5502 16.5833 41.5909 22.779 41.5909Z" fill="#6285F4"/>
<path d="M29.5694 13.0419C28.9515 12.6079 28.0989 12.7572 27.6649 13.3752C26.1487 15.5343 25.3472 18.0713 25.3472 20.7121C25.3472 27.7606 31.0816 33.4951 38.1303 33.4951C45.1791 33.4951 50.9135 27.7606 50.9135 20.7121C50.9135 18.7345 50.4618 16.8604 49.6567 15.1872L54.0335 11.0044C54.5794 10.4827 54.5991 9.61739 54.0772 9.07145C53.5554 8.52551 52.6901 8.50582 52.1443 9.02752L48.1754 12.8203C45.8329 9.84488 42.2022 7.92871 38.1302 7.92871C36.2149 7.92871 34.3707 8.34359 32.6493 9.16186C31.9673 9.48596 31.6771 10.3015 32.0012 10.9834C32.3253 11.6653 33.1409 11.9555 33.8228 11.6314C35.1748 10.9889 36.624 10.6631 38.13 10.6631C41.4262 10.6631 44.3564 12.2587 46.19 14.7177L37.6606 22.869L35.9418 21.1503C35.4079 20.6164 34.5423 20.6164 34.0086 21.1503C33.4746 21.6842 33.4746 22.5499 34.0086 23.0836L36.6723 25.7473C36.9389 26.014 37.2887 26.1478 37.6391 26.1478C37.9789 26.1478 38.319 26.0218 38.5835 25.769L47.5458 17.204C47.9543 18.2968 48.1789 19.4786 48.1789 20.7119C48.1789 26.2528 43.671 30.7606 38.13 30.7606C32.5889 30.7606 28.0811 26.2528 28.0811 20.7119C28.0811 18.6366 28.7108 16.643 29.9021 14.9464C30.3365 14.3285 30.1873 13.4758 29.5694 13.0419Z" fill="#6285F4"/>
</svg>
