<svg width="83" height="87" viewBox="0 0 83 87" fill="none" xmlns="http://www.w3.org/2000/svg">
<path d="M55.0877 77.7733C54.4091 77.6037 53.7201 78.0176 53.551 78.6972C52.7387 81.9588 49.8211 84.2369 46.4557 84.2369H9.84858C5.81624 84.2369 2.53569 80.9563 2.53569 76.924V9.84875C2.53585 5.81641 5.81641 2.53585 9.84858 2.53585H14.8938L15.3722 4.77586C15.832 6.92812 17.7632 8.49038 19.9638 8.49038H27.4733C28.1737 8.49038 28.7412 7.92286 28.7412 7.22245C28.7412 6.52205 28.1737 5.95452 27.4733 5.95452H19.9638C18.9516 5.95452 18.0636 5.23603 17.8522 4.24637L17.4871 2.53585H38.8173L38.452 4.2462C38.2407 5.23603 37.3528 5.95436 36.3407 5.95436H32.8769C32.1764 5.95436 31.6089 6.52188 31.6089 7.22228C31.6089 7.92269 32.1764 8.49021 32.8769 8.49021H36.3405C38.5414 8.49021 40.4722 6.92812 40.9319 4.77569L41.4103 2.53569H46.4557C50.488 2.53569 53.7684 5.81624 53.7684 9.84858V32.2366C53.7684 32.937 54.3359 33.5046 55.0363 33.5046C55.7367 33.5046 56.3043 32.937 56.3043 32.2366V9.84875C56.3043 4.41814 51.8863 0 46.4558 0H9.84858C4.41797 0 0 4.41814 0 9.84875V76.924C0 82.3546 4.41814 86.7727 9.84875 86.7727H46.4558C50.9881 86.7727 54.9177 83.704 56.0116 79.31C56.1809 78.6304 55.7673 77.9424 55.0877 77.7733Z" fill="#6285F4"/>
<path d="M46.3552 24.8088C47.0556 24.8088 47.6231 24.2412 47.6231 23.5408V23.3794C47.6231 20.4452 45.2359 18.058 42.3016 18.058H14.4998C11.5656 18.058 9.17822 20.4451 9.17822 23.3794V33.0606C9.17822 33.761 9.74575 34.3285 10.4462 34.3285C11.1466 34.3285 11.7141 33.761 11.7141 33.0606V23.3794C11.7141 21.8435 12.9637 20.5938 14.4998 20.5938H42.3016C43.8376 20.5938 45.0873 21.8435 45.0873 23.3794V23.5408C45.0873 24.2412 45.6548 24.8088 46.3552 24.8088Z" fill="#6285F4"/>
<path d="M13.9997 54.8163C11.3648 54.8163 9.22095 56.9601 9.22095 59.5952C9.22095 62.2301 11.3648 64.3739 13.9997 64.3739C16.6348 64.3739 18.7786 62.2301 18.7786 59.5952C18.7786 56.9601 16.6348 54.8163 13.9997 54.8163ZM13.9997 61.8379C12.763 61.8379 11.7568 60.8318 11.7568 59.595C11.7568 58.3582 12.7629 57.352 13.9997 57.352C15.2365 57.352 16.2427 58.3582 16.2427 59.595C16.2427 60.8318 15.2365 61.8379 13.9997 61.8379Z" fill="#6285F4"/>
<path d="M13.9997 69.3296C11.3648 69.3296 9.22095 71.4734 9.22095 74.1085C9.22095 76.7434 11.3648 78.8872 13.9997 78.8872C16.6348 78.8872 18.7786 76.7434 18.7786 74.1085C18.7786 71.4732 16.6348 69.3296 13.9997 69.3296ZM13.9997 76.3512C12.763 76.3512 11.7568 75.3451 11.7568 74.1083C11.7568 72.8715 12.7629 71.8653 13.9997 71.8653C15.2365 71.8653 16.2427 72.8715 16.2427 74.1083C16.2427 75.3451 15.2365 76.3512 13.9997 76.3512Z" fill="#6285F4"/>
<path d="M31.4316 54.8163H22.9967C22.2963 54.8163 21.7288 55.3838 21.7288 56.0842C21.7288 56.7846 22.2963 57.3521 22.9967 57.3521H31.4316C32.132 57.3521 32.6995 56.7846 32.6995 56.0842C32.6995 55.3838 32.1318 54.8163 31.4316 54.8163Z" fill="#6285F4"/>
<path d="M35.8499 61.8378H22.9967C22.2963 61.8378 21.7288 62.4053 21.7288 63.1057C21.7288 63.8061 22.2963 64.3736 22.9967 64.3736H35.8499C36.5503 64.3736 37.1178 63.8061 37.1178 63.1057C37.1178 62.4053 36.5503 61.8378 35.8499 61.8378Z" fill="#6285F4"/>
<path d="M44.4301 69.3296H22.9967C22.2963 69.3296 21.7288 69.8971 21.7288 70.5975C21.7288 71.2979 22.2963 71.8654 22.9967 71.8654H44.4301C45.1305 71.8654 45.698 71.2979 45.698 70.5975C45.698 69.8971 45.1305 69.3296 44.4301 69.3296Z" fill="#6285F4"/>
<path d="M44.4301 76.3512H22.9967C22.2963 76.3512 21.7288 76.9187 21.7288 77.6191C21.7288 78.3195 22.2963 78.8871 22.9967 78.8871H44.4301C45.1305 78.8871 45.698 78.3195 45.698 77.6191C45.698 76.9187 45.1305 76.3512 44.4301 76.3512Z" fill="#6285F4"/>
<path d="M36.1802 35.7539L35.1717 34.5852C35.8696 33.4105 36.2721 32.0406 36.2721 30.5777C36.2721 26.2374 32.7409 22.7061 28.4005 22.7061C24.0601 22.7061 20.529 26.2374 20.529 30.5777C20.529 32.0404 20.9314 33.4105 21.6293 34.5852L20.6208 35.7539C18.9428 37.6989 18.0185 40.1849 18.0185 42.7537V45.5271H14.4998C12.9637 45.5271 11.7141 44.2774 11.7141 42.7414V38.4637C11.7141 37.7633 11.1466 37.1958 10.4462 37.1958C9.74575 37.1958 9.17822 37.7633 9.17822 38.4637V42.7414C9.17822 45.6755 11.5655 48.063 14.4998 48.063H40.895C41.5954 48.063 42.1629 47.4954 42.1629 46.795C42.1629 46.0946 41.5954 45.5271 40.895 45.5271H38.7826V42.7537C38.7826 40.1851 37.8584 37.6991 36.1802 35.7539ZM28.4007 25.2421C31.3428 25.2421 33.7365 27.6356 33.7365 30.5779C33.7365 33.5198 31.3429 35.9135 28.4007 35.9135C25.4587 35.9135 23.0651 33.52 23.0651 30.5779C23.0651 27.6356 25.4586 25.2421 28.4007 25.2421ZM20.5547 42.7539C20.5547 40.7928 21.2602 38.8953 22.5412 37.4107L23.2828 36.551C24.6601 37.7327 26.4477 38.4494 28.4007 38.4494C30.3536 38.4494 32.1412 37.7329 33.5185 36.551L34.2602 37.4107C35.5413 38.8955 36.2468 40.7932 36.2468 42.7539V45.5273H20.5547V42.7539Z" fill="#6285F4"/>
<path d="M58.6015 69.9293C58.3623 69.1586 57.6051 68.6487 56.8008 68.7171C54.5849 68.906 52.4019 68.2492 50.6574 66.8677L38.5277 57.2607C37.6084 56.5324 37.3971 55.242 38.0366 54.2589C38.6932 53.2489 40.0232 52.9325 41.0643 53.537L47.6252 57.3479C48.2542 57.7134 49.0284 57.6564 49.5971 57.203C50.1659 56.7496 50.394 56.008 50.1783 55.3136L46.9927 45.0542C46.785 44.3855 46.0748 44.0118 45.4058 44.2193C44.737 44.427 44.3632 45.1376 44.5708 45.8062L47.1601 54.1451L42.3381 51.3443C40.128 50.0605 37.3048 50.7334 35.9109 52.8763C34.5535 54.9632 35.0015 57.7027 36.9533 59.2484L49.0831 68.8554C51.1651 70.5046 53.7324 71.3511 56.3659 71.2807L60.8199 85.6247C60.9888 86.1682 61.4897 86.5168 62.0305 86.5168C62.155 86.5168 62.2816 86.4984 62.4068 86.4595C63.0756 86.2517 63.4494 85.5412 63.2418 84.8724L58.6015 69.9293Z" fill="#6285F4"/>
<path d="M82.9428 77.9529L78.7119 64.3266C78.6488 64.1237 78.6246 63.9137 78.6402 63.7022L78.6917 62.9956C78.9154 59.925 78.5857 56.8679 77.7117 53.9096C77.71 53.9042 77.7083 53.8986 77.7068 53.893L72.8121 38.1163C72.0585 35.69 69.4717 34.3286 67.0456 35.0827C66.1132 35.3722 65.3379 35.9328 64.7799 36.6507C63.6081 35.5116 61.8647 35.03 60.1969 35.5483C59.224 35.8504 58.4223 36.4474 57.8597 37.2108C56.6917 36.1676 55.0202 35.7434 53.4186 36.241C52.7073 36.4617 52.0886 36.8411 51.587 37.3268L49.4621 30.4837C48.7088 28.0576 46.1216 26.6958 43.6956 27.45C41.2695 28.2033 39.9087 30.7902 40.662 33.2162L42.9688 40.6451C43.1766 41.3138 43.887 41.6875 44.5558 41.48C45.2245 41.2723 45.5983 40.5617 45.3907 39.8931L43.0839 32.4641C42.7452 31.3733 43.357 30.2102 44.4476 29.8716C45.5375 29.5321 46.7014 30.1448 47.0402 31.2355L52.4365 48.6136C52.6441 49.282 53.3536 49.656 54.0235 49.4484C54.6921 49.2406 55.0659 48.53 54.8583 47.8613L52.8066 41.2543C52.4683 40.1636 53.0803 39.001 54.1707 38.6622C55.2608 38.3236 56.4246 38.9354 56.7632 40.0261L58.8145 46.6327C58.9834 47.1762 59.4843 47.5248 60.0251 47.5248C60.1496 47.5248 60.2762 47.5064 60.4016 47.4675C61.0703 47.2598 61.444 46.5492 61.2364 45.8806L59.5847 40.5615C59.2465 39.4708 59.8585 38.3082 60.9489 37.9696C62.0389 37.6304 63.2027 38.2426 63.5414 39.3333L65.1929 44.6519C65.3618 45.1956 65.8627 45.5442 66.4035 45.5442C66.5279 45.5442 66.6545 45.5257 66.7798 45.4869C67.4486 45.2791 67.8224 44.5685 67.6148 43.8999L66.4333 40.0944C66.0958 39.004 66.7076 37.8421 67.7977 37.5038C68.326 37.3395 68.8868 37.3914 69.3765 37.6487C69.8661 37.9062 70.2262 38.3393 70.3902 38.8674L75.2824 54.6355C76.0678 57.2975 76.3638 60.0481 76.1626 62.8103L76.1111 63.5168C76.0725 64.0456 76.1327 64.5707 76.2901 65.0775L80.5211 78.7038C80.69 79.2475 81.1909 79.5961 81.7317 79.5961C81.8561 79.5961 81.9828 79.5777 82.108 79.5388C82.7765 79.3322 83.1503 78.6217 82.9428 77.9529Z" fill="#6285F4"/>
</svg>
