<svg width="13" height="26" viewBox="0 0 13 26" fill="none" xmlns="http://www.w3.org/2000/svg">
<path d="M10.843 0.000127126C10.5655 -0.000816161 10.2913 0.060412 10.0406 0.179311C9.78988 0.29821 9.56899 0.47176 9.39417 0.687207L0.422554 11.829C0.149353 12.1613 0 12.5781 0 13.0082C0 13.4383 0.149353 13.8551 0.422554 14.1874L9.70994 25.3292C10.0252 25.7084 10.4783 25.9469 10.9695 25.9921C11.4606 26.0374 11.9497 25.8858 12.329 25.5706C12.7083 25.2554 12.9469 24.8024 12.9921 24.3114C13.0374 23.8204 12.8857 23.3315 12.5705 22.9522L4.26753 12.9989L12.2918 3.04555C12.519 2.77298 12.6633 2.44106 12.7076 2.08908C12.752 1.73709 12.6945 1.37977 12.5421 1.05939C12.3897 0.73901 12.1487 0.468985 11.8476 0.281264C11.5464 0.093543 11.1978 -0.00401725 10.843 0.000127126Z" fill="#DFA754"/>
</svg>
