<svg width="112" height="111" viewBox="0 0 112 111" fill="none" xmlns="http://www.w3.org/2000/svg">
<path d="M74.4043 86.0466C62.8983 103.169 41.9752 85.0683 24.8529 73.5623C7.73059 62.0563 1.45091 50.6263 12.9569 33.504C24.4629 16.3817 52.2744 -7.57883 69.3967 3.92716C86.519 15.4331 85.9103 68.9243 74.4043 86.0466Z" fill="#FFB800"/>
<g filter="url(#filter0_f)">
<ellipse cx="55.9544" cy="58.8499" rx="31.1517" ry="27.6346" fill="#CCCCCC"/>
</g>
<path d="M55.9533 87.4893C78.708 87.4893 97.1532 69.2669 97.1532 46.7911C97.1532 24.3171 78.708 6.09293 55.9533 6.09293C33.1971 6.09293 14.752 24.3171 14.752 46.7911C14.752 69.2669 33.1971 87.4893 55.9533 87.4893Z" fill="url(#paint0_linear)"/>
<path d="M77.3047 34.9844H36.6953C35.2067 34.9844 34 33.7777 34 32.2891C34 30.8004 35.2067 29.5938 36.6953 29.5938H53.4062C53.4062 27.609 55.0153 26 57 26C58.9847 26 60.5938 27.609 60.5938 29.5938H77.3047C78.7933 29.5938 80 30.8004 80 32.2891C80 33.7777 78.7933 34.9844 77.3047 34.9844Z" fill="#6285F4"/>
<path d="M36.7852 37.6797V60.5898C36.7852 61.3341 37.3885 61.9375 38.1328 61.9375H55.6523V64.1459C54.0838 64.7022 52.957 66.2001 52.957 67.957C52.957 70.1863 54.7707 72 57 72C59.2293 72 61.043 70.1863 61.043 67.957C61.043 66.2001 59.9162 64.7022 58.3477 64.1459V61.9375H75.8672C76.6115 61.9375 77.2148 61.3341 77.2148 60.5898V37.6797H36.7852ZM57 69.3047C56.2569 69.3047 55.6523 68.7001 55.6523 67.957C55.6523 67.2139 56.2569 66.6094 57 66.6094C57.7431 66.6094 58.3477 67.2139 58.3477 67.957C58.3477 68.7001 57.7431 69.3047 57 69.3047ZM49.3633 56.5469C49.3633 57.2911 48.7599 57.8945 48.0156 57.8945H42.625C41.8807 57.8945 41.2773 57.2911 41.2773 56.5469V51.1562C41.2773 50.412 41.8807 49.8086 42.625 49.8086H48.0156C48.7599 49.8086 49.3633 50.412 49.3633 51.1562V56.5469ZM61.043 56.5469C61.043 57.2911 60.4396 57.8945 59.6953 57.8945H54.3047C53.5604 57.8945 52.957 57.2911 52.957 56.5469V46.6641C52.957 45.9198 53.5604 45.3164 54.3047 45.3164H59.6953C60.4396 45.3164 61.043 45.9198 61.043 46.6641V56.5469ZM72.7227 56.5469C72.7227 57.2911 72.1193 57.8945 71.375 57.8945H65.9844C65.2401 57.8945 64.6367 57.2911 64.6367 56.5469V43.0703C64.6367 42.326 65.2401 41.7227 65.9844 41.7227H71.375C72.1193 41.7227 72.7227 42.326 72.7227 43.0703V56.5469Z" fill="#6285F4"/>
<defs>
<filter id="filter0_f" x="0.802734" y="7.21533" width="110.303" height="103.269" filterUnits="userSpaceOnUse" color-interpolation-filters="sRGB">
<feFlood flood-opacity="0" result="BackgroundImageFix"/>
<feBlend mode="normal" in="SourceGraphic" in2="BackgroundImageFix" result="shape"/>
<feGaussianBlur stdDeviation="12" result="effect1_foregroundBlur"/>
</filter>
<linearGradient id="paint0_linear" x1="22.1745" y1="23.4868" x2="89.166" y2="71.0934" gradientUnits="userSpaceOnUse">
<stop stop-color="white"/>
<stop offset="0.708737" stop-color="white"/>
<stop offset="1" stop-color="white"/>
</linearGradient>
</defs>
</svg>
