<svg width="110" height="109" viewBox="0 0 110 109" fill="none" xmlns="http://www.w3.org/2000/svg">
<path d="M50.0172 87.5622C30.0127 92.6004 26.5579 65.1509 21.5196 45.1465C16.4814 25.142 19.4547 12.4441 39.4591 7.40589C59.4636 2.36768 96.1648 3.14749 101.203 23.1519C106.241 43.1564 70.0216 82.524 50.0172 87.5622Z" fill="#FFB800"/>
<g filter="url(#filter0_f)">
<ellipse cx="54.4825" cy="55.0025" rx="31.1517" ry="27.6346" transform="rotate(41.9632 54.4825 55.0025)" fill="#CCCCCC"/>
</g>
<path d="M35.3336 76.2989C52.2534 91.5139 78.1532 90.2976 93.1817 73.5852C108.209 56.8741 106.679 30.9897 89.7594 15.7747C72.8385 0.558696 46.9375 1.7763 31.9102 18.4874C16.8817 35.1998 18.4126 61.0829 35.3336 76.2989Z" fill="url(#paint0_linear)"/>
<path d="M85.3975 24.125H63.4306C60.8884 24.125 58.8281 26.1857 58.8281 28.7274V39.5478C59.9893 40.125 61.244 40.7491 62.4151 41.3312L64.2068 37.7461C65.2917 35.5782 67.9365 34.6974 70.1036 35.7804C72.2753 36.8672 73.1554 39.5047 72.0682 41.6768L68.8741 48.0664C68.9588 48.9121 68.8837 49.7647 68.6452 50.5898H70.754L65.1922 65.8837C64.8622 66.7909 65.5 67.8494 66.5693 67.8494C67.1671 67.8494 67.7293 67.4806 67.9453 66.8847L73.871 50.5898H74.8975L80.8836 66.8897C81.1014 67.4825 81.6621 67.8494 82.2595 67.8494C83.2586 67.8494 83.991 66.8515 83.6336 65.8799L78.0183 50.5898H85.3975C87.9392 50.5898 89.9999 48.5291 89.9999 45.9874V28.7274C89.9999 26.1857 87.9392 24.125 85.3975 24.125V24.125ZM82.2588 44.3143H75.6864C74.8777 44.3143 74.2216 43.6582 74.2216 42.8494C74.2216 42.04 74.8777 41.3846 75.6864 41.3846H82.2588C83.0682 41.3846 83.7236 42.04 83.7236 42.8494C83.7236 43.6582 83.0682 44.3143 82.2588 44.3143ZM82.2588 38.8223H75.6864C74.8777 38.8223 74.2216 38.1669 74.2216 37.3574C74.2216 36.5487 74.8777 35.8926 75.6864 35.8926H82.2588C83.0682 35.8926 83.7236 36.5487 83.7236 37.3574C83.7236 38.1669 83.0682 38.8223 82.2588 38.8223ZM82.2588 33.331H66.5693C65.7598 33.331 65.1044 32.6749 65.1044 31.8662C65.1044 31.0574 65.7598 30.4013 66.5693 30.4013H82.2588C83.0682 30.4013 83.7236 31.0574 83.7236 31.8662C83.7236 32.6749 83.0682 33.331 82.2588 33.331Z" fill="#6285F4"/>
<path d="M65.7736 49.9616C66.0384 49.186 66.0365 48.3758 65.8129 47.6365L69.4483 40.3665C69.81 39.6428 69.517 38.7628 68.7933 38.4011C68.0701 38.0391 67.19 38.3325 66.828 39.0561L63.7274 45.2565C61.8742 44.3337 59.0586 42.9337 56.7904 41.8057C54.6801 40.7563 53.1741 39.8152 50.6045 39.8152H49.3102C51.311 39.8152 53.0966 38.8944 54.2654 37.4532C55.1573 36.3564 55.6906 34.9587 55.6906 33.4355C55.6906 29.9111 52.8342 27.0547 49.3094 27.0547C45.7861 27.0547 42.9297 29.9111 42.9297 33.4355C42.9297 35.1281 43.5889 36.6662 44.6642 37.8076C45.827 39.0439 47.4783 39.8152 49.309 39.8156C46.8546 39.8156 44.4552 40.8101 42.729 42.5408C40.9693 44.296 40 46.6344 40 49.1254V53.8323C40 55.8587 41.3157 57.5829 43.138 58.1964V66.3842C43.138 67.1933 43.7937 67.8491 44.6028 67.8491H54.0167C54.8258 67.8491 55.4816 67.1933 55.4816 66.3842V49.9257C56.8705 50.62 58.6951 51.5321 60.1714 52.2706C61.2063 52.7879 62.4155 52.8344 63.494 52.3957C64.5693 51.9532 65.3983 51.0724 65.7679 49.9787C65.7698 49.973 65.7717 49.9673 65.7736 49.9616Z" fill="#6285F4"/>
<defs>
<filter id="filter0_f" x="0.851562" y="1.74316" width="107.264" height="106.519" filterUnits="userSpaceOnUse" color-interpolation-filters="sRGB">
<feFlood flood-opacity="0" result="BackgroundImageFix"/>
<feBlend mode="normal" in="SourceGraphic" in2="BackgroundImageFix" result="shape"/>
<feGaussianBlur stdDeviation="12" result="effect1_foregroundBlur"/>
</filter>
<linearGradient id="paint0_linear" x1="53.0119" y1="6.122" x2="70.9928" y2="86.3152" gradientUnits="userSpaceOnUse">
<stop stop-color="white"/>
<stop offset="0.708737" stop-color="white"/>
<stop offset="1" stop-color="white"/>
</linearGradient>
</defs>
</svg>
