<svg width="114" height="115" viewBox="0 0 114 115" fill="none" xmlns="http://www.w3.org/2000/svg">
<path d="M100.648 70C100.648 92.0914 71.2398 88.5 49.1484 88.5C27.057 88.5 14.6484 82.0914 14.6484 60C14.6484 37.9086 25.057 0 47.1484 0C69.2398 0 100.648 47.9086 100.648 70Z" fill="#FFB800"/>
<g filter="url(#filter0_f)">
<ellipse cx="57" cy="61.5" rx="33" ry="29.5" fill="#CCCCCC"/>
</g>
<path d="M56.8904 93C81.1301 93 100.779 73.2993 100.779 49C100.779 24.7027 81.1301 5.00005 56.8904 5.00005C32.649 5.00005 13 24.7027 13 49C13 73.2993 32.649 93 56.8904 93Z" fill="url(#paint0_linear)"/>
<path fill-rule="evenodd" clip-rule="evenodd" d="M48.8844 41.8985C50.249 41.2725 52.899 42.8129 52.9277 40.7153C52.9571 38.5358 50.2968 39.6223 48.9461 39.6813C47.4937 39.7468 44.7455 38.2704 44.7391 40.8071C44.7347 42.7047 47.4485 41.3282 48.8844 41.8985ZM56.8673 61.4893C60.4701 61.4893 64.0716 61.504 67.6723 61.4761C68.3627 61.4712 69.3375 61.7334 69.4356 60.5847C69.5572 59.1688 68.439 59.4048 67.6342 59.4015C60.5407 59.3835 53.4467 59.3835 46.3552 59.4097C45.6644 59.4097 44.6875 59.1475 44.5901 60.3012C44.4672 61.7203 45.584 61.4729 46.3889 61.4794C49.8847 61.504 53.376 61.4893 56.8673 61.4893ZM57.0196 54.9213C60.4975 54.9213 63.9742 54.9459 67.4508 54.9049C68.2188 54.8902 69.3662 55.2802 69.454 53.9299C69.5463 52.519 68.3901 52.8057 67.6011 52.8008C60.537 52.7795 53.4761 52.7795 46.415 52.8008C45.621 52.8057 44.4692 52.5353 44.5735 53.9397C44.6736 55.2884 45.8215 54.8902 46.5901 54.9016C50.0656 54.9459 53.5441 54.9213 57.0196 54.9213ZM56.8469 48.3534C60.3293 48.3534 63.8143 48.3878 67.2979 48.3288C68.1449 48.3173 69.5088 48.8171 69.4617 47.1882C69.4216 45.8445 68.2378 46.2034 67.4648 46.1984C60.4975 46.1657 53.5295 46.1657 46.5634 46.1952C45.7891 46.2001 44.6048 45.8396 44.5647 47.1866C44.5124 48.8171 45.8763 48.3173 46.7233 48.3288C50.0974 48.3878 53.4722 48.3534 56.8469 48.3534ZM40.1411 47.2849C40.1411 41.3577 40.215 35.4387 40.1035 29.5196C40.0564 27.0108 40.8938 25.9194 43.4968 26.0046C47.6369 26.1423 51.786 26.1062 55.932 26.0095C57.6282 25.9702 58.2376 26.5142 58.183 28.2513C58.0835 31.4271 58.1937 34.6078 58.1898 37.7902C58.183 40.5023 59.4857 41.8231 62.2015 41.7936C65.3635 41.7674 68.5281 41.864 71.6877 41.7641C73.3496 41.7084 73.9858 42.1951 73.9699 43.9682C73.9017 50.9835 73.9598 58.0037 73.9999 65.019C74.0126 67.0527 73.1638 68.0048 71.0541 67.9933C61.6736 67.9474 52.2943 67.9343 42.9136 67.9999C40.5263 68.0146 39.9736 66.8347 40.001 64.7142C40.0807 58.905 40.0303 53.0941 40.0303 47.2849H40.1411Z" fill="#6285F4"/>
<path fill-rule="evenodd" clip-rule="evenodd" d="M73 39.9713C70.459 39.9713 67.2006 39.9008 63.9445 39.9965C61.9012 40.057 60.9341 39.3344 61.0035 37.0944C61.1053 33.7453 61.0295 30.3911 61.0295 27C65.1539 31.4717 69.1918 35.8459 73 39.9713Z" fill="#6285F4"/>
<defs>
<filter id="filter0_f" x="0" y="8" width="114" height="107" filterUnits="userSpaceOnUse" color-interpolation-filters="sRGB">
<feFlood flood-opacity="0" result="BackgroundImageFix"/>
<feBlend mode="normal" in="SourceGraphic" in2="BackgroundImageFix" result="shape"/>
<feGaussianBlur stdDeviation="12" result="effect1_foregroundBlur"/>
</filter>
<linearGradient id="paint0_linear" x1="20.9069" y1="23.8051" x2="92.9752" y2="74.2679" gradientUnits="userSpaceOnUse">
<stop stop-color="white"/>
<stop offset="0.708737" stop-color="white"/>
<stop offset="1" stop-color="white"/>
</linearGradient>
</defs>
</svg>
